<svg xmlns="http://www.w3.org/2000/svg" viewBox="0 0 167.5 84.8"><circle fill="none" stroke="#fff" stroke-width="4" stroke-miterlimit="10" cx="99.8" cy="13.9" r="6"/><path d="M42.9 52.2c0 1.1-.9 2.1-2.1 2.1H8.5c-1.1 0-2.1-.9-2.1-2.1 0-1.1.9-2.1 2.1-2.1h32.3c1.2.1 2.1 1 2.1 2.1zm4.7-13.4c0 1.1-.9 2.1-2.1 2.1H26c-1.1 0-2.1-.9-2.1-2.1 0-1.1.9-2.1 2.1-2.1h19.5c1.2.1 2.1.9 2.1 2.1zm17.3-13.4c0 1.1-.9 2.1-2.1 2.1H34.3c-1.1 0-2.1-.9-2.1-2.1 0-1.1.9-2.1 2.1-2.1h28.5c1.3.2 2.1 1 2.1 2.1zM33.3 77.3c0 1.2 1 2.1 2.1 2.1h125.3c1.2 0 2.1-1 2.1-2.1 0-1.2-1-2.1-2.1-2.1H35.4c-1.2 0-2.1.9-2.1 2.1zm71.3-53.1c0-.1-.1-.1 0 0-4.4-.5-8.7-.5-13 0h-.1c-24.9 3.1-44.2 23.1-46.4 48h106c-2.3-24.9-21.6-45-46.5-48zM70.8 64.6H56.3c-.8 0-1.5-.7-1.5-1.5s.7-1.5 1.5-1.5h14.5c.8 0 1.5.7 1.5 1.5 0 .9-.7 1.5-1.5 1.5zm2.8-8.5H59.1c-.8 0-1.5-.7-1.5-1.5s.7-1.5 1.5-1.5h14.5c.8 0 1.5.7 1.5 1.5s-.7 1.5-1.5 1.5zm6.8-8.6H65.9c-.8 0-1.5-.7-1.5-1.5s.7-1.5 1.5-1.5h14.5c.8 0 1.5.7 1.5 1.5s-.7 1.5-1.5 1.5z" fill="#fff"/></svg>