<svg xmlns="http://www.w3.org/2000/svg" width="1000" height="350.452"><path d="M46.832 148.54c-6.313 9.686-6.496 30.528-2.043 59.92 4.443 29.424 22.971 34.548 28.722 34.85 5.783.357 29.122-6.107 22.538-60.297-6.572-54.168-31.705-48.99-31.705-48.99-9.307 1.362-11.134 4.854-17.512 14.518m35.219-55.368s48.287-6.746 49.455-4.184c4.918 11.08 13.393 159.575 13.393 159.575s11.015 59.033-12.842 78.134c-23.847 19.111-53.714 23.846-71.648 23.198-17.966-.584-31.154-.995-35.542-3.125-6.897-3.361-12.734-35.088-3.481-41.369 11.242-7.62 44.06 8.475 55.638 2.486 11.567-6.031 21.685-16.085 20.312-32.537-1.362-16.431-1.676-20.128-1.676-20.128s-8.756 26.981-30.613 31.392c-21.825 4.421-51.163-11.805-59.12-54.774-7.955-42.958-5.999-81.895-1.545-97.256 4.432-15.339 15.015-42.472 39.65-42.04 24.658.4 38.03 22.474 38.03 22.474l-.011-21.846zm81.359-11.301c-.087 5.697 7.448 181.995 9.037 184.394.68 1.027 39.088-1.47 40.602-1.989l-5.038-102.401s-.378-18.226 5.416-24.809c5.816-6.54 9.664-11.231 21.771-11.804 2.335-.13.562-44.234-1.73-48.915 0 0-13.934.638-18.906 7.946-5.005 7.275-6.486 9.934-7.686 13.436-1.232 3.492-1.762 5.2-1.762 5.2l-1.113-23.036-40.591 1.978zm92.297-7.933c-.13-1.719 40.45-4.465 40.559-2.476 1.005 16.302 7.945 128.702 7.945 128.702s8.108 24.485 14.777 21.685c14.82-6.162 12.734-23.155 12.734-23.155s-10.399-116.854-7.945-128.961l40.548-2.497c3.016 38.872 10.874 139.933 11.372 184.243 0 0-38.094 9.61-40.559 2.507-2.432-6.961-1.351-21.998-1.351-21.998s-8.562 27.112-32.916 27.511c-24.344.411-35.024-25.813-35.791-35.888-.79-10.107-8.292-135.653-9.373-149.673m183.82 54.544c-4.26 10.605-3.179 31.76-1.006 62.286 2.13 30.517 31.543 21.523 31.543 21.523s13.34-6.66 14.507-52.839c1.114-46.147-22.798-52.6-22.798-52.6-15.48.562-17.987 11.015-22.246 21.63M437.98 18.407c.41 13.469 2.075 77.095 2.075 77.095l3.978-6.875s11.772-20.193 28.96-19.08c17.144 1.114 36.386 10.41 41.607 60.514 5.232 50.147-.908 80.101-4.594 93.83-3.61 13.75-14.194 26.69-35.046 27.208-20.841.595-31.327-23.598-31.327-23.598s4.076 17.22.584 21.21c-10.29 11.641-42.126 3.923-42.223 1.026-.108-4.26-1.838-68.923-1.838-68.923S395.984 42.869 395.8 19.423c-.011-2.41 42.018-5.654 42.18-1.016M553.749.5l43.12 2.378s-8.713 95.224-5.632 102.423c.757 1.773 37.056 4.346 37.424 2.065 2-11.253 5.653-102.423 5.653-102.423l43.078 2.356s-5.222 134.713-5.643 142.388c-.616 12.128-6.54 103.828-7.945 104.866-8.594 6.464-43.078-2.357-43.078-2.357s6.151-89.127 5.708-103.85c-.065-1.838-37.434-2.054-37.434-2.054-1.081 19.577-.995 97.397-5.73 103.84-6.377 8.69-43.099-2.379-43.099-2.379C541.252 209 553.75.5 553.75.5m154.016 64.239c.519-3.514 40.656 2.237 40.342 4.648L733.17 199.072s-1.46 23.89 10.929 22.41c12.388-1.503 15.534-11.448 17.566-29.133 2.054-17.631 12.172-105.558 13.837-119.795l40.374 4.67C805.39 132.97 794.7 260.602 794.7 260.602l-40.375-4.648 2.292-19.847s-15.102 21.706-35.186 19.5c-20.085-2.204-33.197-21.63-29.608-53.054 3.643-31.38 13.998-124.691 15.944-137.814m163.36 120.245c.227 52.806 19.987 58.178 19.987 58.178s25.317-1.2 30.17-52.795c4.854-51.617-18.668-55.876-18.668-55.876s-31.684-2.573-31.49 50.493m-37.845-56.33c.54-4.194 13.415-85.83 15.264-101.17 0 0 45.034 2.292 44.644 5.633-2.291 19.046-9.74 80.684-9.74 80.684s19.631-25.695 33.63-22.636c13.999 3.038 30.722 2.81 38.494 42.505 7.805 39.683-9.664 105.287-12.831 112.984-3.21 7.664-15.545 37.424-43.51 35.456-27.922-1.956-27.057-19.457-27.057-19.457l-5.372-10.68s1.643 18.43-2.649 21.803c-8.831 6.972-40.72 5.308-44.71-5.2-6.204-16.463 13.34-135.75 13.837-139.922M981.188 84.73l1.708-.01c1.989-.022 3.589-.692 3.589-2.303 0-1.427-1.07-2.367-3.34-2.335-.952 0-1.611.097-1.99.184l.033 4.464zm-.032 8.713l-3.611.032-.097-15.555c1.427-.195 3.416-.486 5.967-.508 2.94-.01 4.27.443 5.329 1.21.93.66 1.622 1.784 1.622 3.298.01 1.902-1.406 3.135-3.2 3.718v.184c1.513.476 2.291 1.697 2.778 3.783.508 2.368.886 3.211 1.146 3.784l-3.762.01c-.497-.561-.79-1.891-1.276-3.761-.291-1.632-1.254-2.367-3.243-2.357h-1.686l.033 6.162zm-9.632-7.989c.054 6.93 5.308 12.378 12.215 12.345 6.735.044 11.804-5.588 11.772-12.41-.043-6.918-5.2-12.474-12.129-12.41-6.723.023-11.901 5.654-11.858 12.475m27.976-.172c.043 8.712-6.94 15.674-15.837 15.739-8.907.054-16.063-6.821-16.106-15.534-.076-8.724 7.005-15.588 15.998-15.653 8.81-.065 15.87 6.713 15.945 15.448" fill="#fff"/></svg>