<svg xmlns="http://www.w3.org/2000/svg" width="278.667" height="137.25" viewBox="0 0 278.667 137.25"><path fill="#fff" d="M117.523 84.345h-2.08c-.596 0-.895-.335-.895-1.022V58.512c0-1.471.306-2.551.914-3.234.611-.675 1.664-1.015 3.166-1.015h3.313c3.684 0 6.318.31 7.903.937 2.865 1.132 4.295 3.656 4.295 7.563 0 4.22-1.846 6.937-5.525 8.155l6.453 11.432c.347.675.513 1.103.513 1.271 0 .344-.154.54-.468.601-.453.105-1.329.166-2.634.166-.536 0-.966-.294-1.272-.891l-6.419-11.94c-.536.06-1.396.083-2.593.083H118.5v11.684c0 .686-.324 1.021-.977 1.021zm4.846-16.012c2.185 0 3.864-.233 5.053-.687 1.759-.68 2.638-2.234 2.638-4.672 0-2.491-.849-4.069-2.551-4.718-.932-.37-2.608-.551-5.016-.551h-2.419c-1.045 0-1.574.523-1.574 1.57v9.057h3.869zm20.021 11.782c1.03.924 2.642 1.385 4.815 1.385 1.932 0 3.57-.199 4.933-.597.623-.139.993-.211 1.106-.211.339 0 .581.17.725.51.283.705.422 1.256.422 1.656 0 .367-.226.653-.679.85-1.759.74-4.068 1.105-6.921 1.105-3.601 0-6.152-.871-7.654-2.611-1.502-1.744-2.253-4.57-2.253-8.479 0-3.963.808-6.839 2.427-8.604 1.615-1.771 4.061-2.649 7.344-2.649 1.479 0 2.721.173 3.744.528 1.019.35 1.819.811 2.4 1.381.581.566 1.026 1.344 1.336 2.332.317.992.513 1.966.592 2.914.087.943.132 2.144.132 3.588 0 .685-.113 1.122-.34 1.318-.227.166-.528.257-.891.257h-12.835c.03 2.632.562 4.409 1.597 5.327zm8.77-8.386c.03-.203.045-.528.045-.98 0-1.729-.336-3.002-1-3.824-.668-.826-1.921-1.23-3.759-1.23-1.981 0-3.4.506-4.246 1.529-.853 1.019-1.306 2.521-1.366 4.506h10.326zm22.769 10.789c-.34.45-.751.777-1.234.979-1.841.876-4.506 1.316-7.985 1.316-2.887 0-4.884-.607-5.971-1.83-1.09-1.215-1.634-2.868-1.634-4.971 0-2.408.804-4.106 2.419-5.098 1.358-.82 3.57-1.228 6.627-1.228 1.955 0 3.427.05 4.423.166v-1.746c0-1.276-.098-2.145-.302-2.632-.392-1.074-1.812-1.61-4.25-1.61-1.445 0-2.981.166-4.63.506-.932.199-1.453.297-1.566.297-.347 0-.585-.199-.725-.592-.204-.653-.302-1.22-.302-1.698 0-.453.256-.752.766-.896a25.477 25.477 0 0 1 7.054-1.014c3.2 0 5.313.521 6.329 1.565.94.94 1.404 2.789 1.404 5.567v11.133c0 .795-.14 1.391-.423 1.786zm-7.356-7.86c-2.377 0-3.963.265-4.751.808-.683.426-1.03 1.246-1.03 2.461 0 1.248.321 2.188.939 2.83.626.635 1.785.954 3.483.954 1.876 0 3.333-.211 4.378-.637.4-.171.668-.407.808-.725.113-.337.174-.823.174-1.441v-4.081a45.977 45.977 0 0 0-4.001-.169zm16.606 5.608c.4.566 1.211.936 2.427 1.102.483.091.721.37.721.854 0 .652-.053 1.178-.166 1.569-.113.431-.468.638-1.064.638-2.748 0-4.574-.751-5.479-2.25-.483-.792-.725-2.108-.725-3.95v-24.77c0-.651.313-.977.936-.977h2.038c.57 0 .853.325.853.977v24.297c-.002 1.222.153 2.057.459 2.51z"/><path fill="#F9A533" d="M194.916 84.299h-4.419c-.766 0-1.144-.479-1.144-1.441V58.981c0-1.502.321-2.691.974-3.57.649-.875 1.97-1.318 3.951-1.318h1.445c.91 0 1.615.065 2.121.193.514.129.967.453 1.359.975.4.527.694 1.004.875 1.449.182.438.502 1.275.955 2.523 1.642 4.619 2.85 8.145 3.611 10.579.311-1.049 1.442-4.589 3.396-10.62.34-1.019.611-1.763.813-2.234.199-.46.502-.958.909-1.486a3.164 3.164 0 0 1 1.555-1.08c.622-.195 1.415-.299 2.378-.299h1.66c.988 0 1.781.104 2.378.322.593.211 1.026.568 1.294 1.082.268.506.441 1.004.51 1.484.076.482.105 1.162.105 2.045v23.708c0 1.042-.449 1.565-1.358 1.565h-4.415c-.797 0-1.193-.509-1.193-1.524 0-11.903.042-19.122.125-21.673-.85 3.147-2.461 8.272-4.842 15.386-.34 1.076-.725 1.818-1.145 2.23-.426.408-1.049.615-1.867.615h-.767c-.796 0-1.399-.207-1.808-.615-.411-.412-.785-1.102-1.129-2.061-2.773-8.246-4.502-13.432-5.181-15.556.083 2.523.128 9.8.128 21.844.001.902-.429 1.354-1.274 1.354zm35.966-5.686c.763.506 1.917.763 3.442.763 1.758 0 3.316-.141 4.676-.423.565-.147 1.022-.219 1.361-.219.506 0 .873.244 1.103.725.366 1.049.555 2.068.555 3.06 0 .563-.229.948-.683 1.147-1.586.763-4.209 1.147-7.857 1.147-3.884 0-6.631-.886-8.246-2.657-1.611-1.769-2.424-4.592-2.424-8.479 0-4.015.861-6.921 2.574-8.702 1.71-1.789 4.359-2.68 7.926-2.68 1.215 0 2.299.098 3.23.294s1.717.456 2.352.766a4.742 4.742 0 0 1 1.637 1.318 7.35 7.35 0 0 1 1.043 1.698c.24.568.434 1.298.572 2.188.145.891.227 1.714.254 2.464.033.755.045 1.695.045 2.827 0 .732-.186 1.23-.555 1.487-.227.169-.563.252-1.02.252h-11.174c.026 1.502.426 2.514 1.189 3.024zm5.23-7.613c.03-.169.042-.396.042-.675 0-1.133-.223-1.963-.66-2.488-.438-.523-1.238-.785-2.4-.785s-1.993.314-2.506.934c-.514.622-.777 1.63-.809 3.015h6.333zm26.667 11.734a4.088 4.088 0 0 1-1.615.974c-.91.287-2.261.536-4.061.763-1.801.229-3.404.343-4.823.343-3.171 0-5.352-.622-6.54-1.867-1.189-1.253-1.789-2.944-1.789-5.1 0-2.464.797-4.237 2.381-5.31 1.328-.94 3.623-1.403 6.885-1.403 1.162 0 2.294.045 3.396.128v-.68c0-.792-.053-1.333-.166-1.615-.258-.687-1.333-1.019-3.23-1.019-1.333 0-2.676.108-4.039.332-1.019.174-1.684.257-1.996.257-.51 0-.861-.324-1.064-.974-.279-1.216-.419-2.187-.419-2.891 0-.71.354-1.19 1.057-1.446 1.955-.622 4.408-.932 7.353-.932 3.936 0 6.476.581 7.607 1.739 1.076 1.079 1.615 3.001 1.615 5.778v10.711c-.001 1.02-.188 1.755-.552 2.212zm-8.672-7.269c-1.502 0-2.521.182-3.058.551-.452.34-.679.891-.679 1.661 0 1.464.905 2.211 2.721 2.211 1.358 0 2.32-.158 2.887-.472.279-.083.469-.298.551-.638.057-.257.084-.736.084-1.441v-1.748a24.025 24.025 0 0 0-2.506-.124zm19.254 2.68c.287.649 1.092 1.09 2.424 1.313.678.113 1.014.543 1.014 1.275 0 1.103-.053 1.97-.17 2.589-.082.453-.244.771-.486.939-.238.166-.629.253-1.166.253-2.182 0-3.842-.219-4.992-.656-1.152-.442-2.031-1.125-2.658-2.065-.705-1.049-1.061-2.855-1.061-5.438v-22.56c0-.875.396-1.313 1.189-1.313h4.42c.453 0 .758.106.912.317.156.211.234.543.234.996v21.67c0 1.246.114 2.14.34 2.68z"/><path d="M149.708 103.098c-.54 0-.929-.12-1.167-.369-.241-.249-.366-.646-.366-1.192v-8.454c0-.559.125-.966.366-1.228.238-.257.642-.388 1.2-.388h1.502c1.306 0 2.31.105 3.012.317 1.955.558 2.936 2.347 2.936 5.366 0 1.46-.226 2.649-.679 3.57-.453.913-1.223 1.577-2.325 1.985-.702.259-1.732.392-3.095.392h-1.384zm.629-1.381h1.151c.955 0 1.69-.121 2.208-.362.702-.321 1.193-.822 1.472-1.518.279-.694.422-1.585.422-2.687 0-1.042-.132-1.892-.396-2.544a2.49 2.49 0 0 0-1.37-1.408c-.513-.244-1.313-.362-2.4-.362h-1.155c-.374 0-.562.208-.562.626v7.594c.001.443.208.661.63.661zm14.455 1.381c-.559 0-.966-.117-1.223-.354-.256-.233-.389-.649-.389-1.242v-8.404c0-.565.125-.98.362-1.242.242-.257.653-.388 1.234-.388h4.831c.242 0 .362.116.362.347v.71c0 .219-.121.327-.362.327h-4.352c-.362 0-.543.204-.543.611v2.898h4.416c.253 0 .377.121.377.362v.691c0 .22-.125.332-.377.332h-4.416v3.31c0 .442.211.661.646.661h4.495c.253 0 .381.121.381.362v.689c0 .22-.128.329-.381.329h-5.061zm12.733 0c-.551 0-.951-.117-1.208-.354-.249-.233-.377-.626-.377-1.178V91.83c0-.265.125-.393.362-.393h.842c.219 0 .332.128.332.393v9.246c0 .426.208.642.626.642h4.461c.253 0 .381.121.381.362v.689c0 .22-.128.329-.381.329h-5.038zm11.594.033h-.826c-.227 0-.344-.131-.344-.396V91.83c0-.265.121-.393.362-.393h.842c.219 0 .328.128.328.393v10.906c0 .264-.121.395-.362.395zm13.454-11.249c.057-.166.12-.284.181-.354.064-.072.162-.105.283-.105.461 0 .785.022.971.083.131.029.199.112.199.241 0 .078-.045.237-.132.479l-3.577 10.099c-.095.276-.216.483-.359.616-.143.139-.373.212-.694.212h-.396c-.314 0-.552-.076-.699-.216-.15-.146-.279-.366-.389-.66l-3.491-10.031a1.471 1.471 0 0 1-.113-.48c0-.131.057-.219.178-.259.125-.061.464-.083 1.038-.083.121 0 .211.029.268.098.049.063.109.188.177.362 1.826 5.344 2.906 8.567 3.246 9.654l3.309-9.656zm8.107 11.216c-.563 0-.971-.117-1.23-.354-.256-.233-.389-.649-.389-1.242v-8.404c0-.565.125-.98.362-1.242.241-.257.657-.388 1.237-.388h4.828c.24 0 .361.116.361.347v.71c0 .219-.121.327-.361.327h-4.352c-.363 0-.544.204-.544.611v2.898h4.415c.258 0 .378.121.378.362v.691c0 .22-.12.332-.378.332h-4.415v3.31c0 .442.212.661.646.661h4.494c.258 0 .382.121.382.362v.689c0 .22-.124.329-.382.329h-5.052zm12.299.033h-.807c-.234 0-.348-.131-.348-.396v-9.62c0-.569.121-.992.355-1.253.236-.26.645-.396 1.229-.396h1.283c1.427 0 2.446.121 3.064.362 1.109.44 1.665 1.419 1.665 2.937 0 1.633-.714 2.687-2.145 3.162l2.506 4.431c.133.265.197.431.197.493 0 .133-.057.209-.182.231-.174.045-.518.068-1.023.068-.207 0-.369-.118-.49-.348l-2.49-4.627c-.208.019-.544.03-1.004.03h-1.435v4.528c.002.267-.125.398-.375.398zm1.875-6.207c.849 0 1.499-.091 1.962-.269.684-.26 1.02-.863 1.02-1.807 0-.967-.328-1.578-.984-1.835-.363-.14-1.012-.211-1.947-.211h-.937c-.407 0-.611.204-.611.611v3.51h1.497zm14.066 6.207h-.822c-.242 0-.362-.136-.362-.41V98.11l-3.673-5.885c-.143-.241-.215-.411-.215-.509 0-.11.061-.193.182-.249.064-.03.434-.045 1.102-.045.189 0 .363.116.529.362 1.407 2.249 2.369 3.849 2.898 4.792.406-.739 1.365-2.313 2.883-4.729.098-.161.188-.279.264-.335a.49.49 0 0 1 .313-.09c.524 0 .849.015.974.045.117.038.182.105.182.219 0 .105-.064.268-.182.476l-3.709 5.913v4.646c-.001.275-.122.41-.364.41z" fill="#fff"/><path fill="#74B643" d="M83.141 0C76.144.415 67.584 4.246 65.26 11.367c-.521 1.585-.574 3.053-.325 4.348 1.14-1.646 5.389-7.284 11.111-7.948 0 0-6.348 6.053-8.507 11.582 1.11.607 2.416.974 4.053.736C81.178 18.621 84.103 8.205 83.141 0zM53.258 10.59c1.476.653 4.703 2.189 8.454 6.725.287-1.151.234-2.498-.242-3.947-1.94-5.922-9.073-9.122-14.911-9.48-.396 6.733 1.642 15.538 9.627 16.741 1.525.234 2.736-.132 3.699-.773-3.207-4.168-6.627-9.266-6.627-9.266zM39.431 92.124c0 1.494-1.306 2.72-2.898 2.72H2.898C1.306 94.843 0 93.618 0 92.124c0-1.495 1.306-2.718 2.898-2.718h33.634c1.593 0 2.899 1.222 2.899 2.718zm0 10.974c0 1.494-1.306 2.717-2.898 2.717h-16.53c-1.593 0-2.898-1.223-2.898-2.717 0-1.495 1.306-2.722 2.898-2.722h16.53c1.592 0 2.898 1.227 2.898 2.722z"/><path fill="#fff" d="M73.812 52.493c3.238-2.216 3.064-6.213-.808-7.541-5.182-1.785-9.178 1.872-9.178 1.872 2.86 3.453 6.385 2.374 6.385 2.374-2.362 1.098-4.611 1.943-9.148-1.182-4.453-3.072-8.303-.192-7.646 3.121.332 1.283 1.253 2.242 2.393 2.876.385.219 1.348.378 1.623.69.611.691.653 2.676.709 3.59.045.928.102 1.853.147 2.781.011.004.023.004.034.004a10.325 10.325 0 0 0-.781 4.316c.204 5.197 4.012 9.272 8.533 9.104 4.514-.174 8.02-4.521 7.816-9.715a10.668 10.668 0 0 0-.396-2.407c-1.812.109-5.601.151-9.684-.842 6.265-.219 9.163-1.487 9.163-1.487-.453-1.369-.589-2.199-.713-3.631-.17-1.867-.001-2.867 1.551-3.923z"/><path fill-rule="evenodd" clip-rule="evenodd" fill="#fff" d="M98.252 123.269c-1.91-2.984-4.151-5.739-6.642-8.261-3.699-3.748-7.926-6.979-12.455-9.658-.294-.174-5.819-3.049-5.834-3.004.868-2.763 2.721-11.642 3.51-16.043 1.359-.588 2.657-1.223 3.804-1.954 1.872-1.197 3.502-2.602 4.85-4.179 5.008-5.891 5.65-13.322 5.612-19.816-.019-3.839-.019-7.397-.015-10.764v-3.26c0-2.548-2.332-4.778-4.989-4.778-2.725 0-5.205 2.271-5.205 4.778v16.594c0 6.265-4.132 12.149-10.035 14.303-1.698.624-3.555.956-5.521.994-1.981-.038-3.831-.37-5.529-.994-5.91-2.153-10.039-8.041-10.039-14.303V46.33c0-2.507-2.483-4.778-5.208-4.778-2.657 0-4.981 2.23-4.981 4.778v2.947c0 3.506 0 7.122-.023 11.077-.034 6.494.604 13.926 5.616 19.816 1.336 1.569 2.966 2.974 4.846 4.179 1.6 1.014 3.419 1.901 5.404 2.637 2.952 1.087 5.963 1.653 8.975 1.809-1.902 1.626-4.755 2.622-7.782 2.622-1.804 0-3.51-.335-5.087-.901-.634 3.193-1.464 7.329-2.604 12.827-1.147 5.503-3.352 11.586-8.288 14.81-3.174 2.061-7.02 2.468-10.681 1.815-1.796-.321-3.804-1.544-5.653-.853-1.713.637-2.272 2.97-1.472 4.544 3.351 6.577 12.378 7.39 18.794 6.041 7.125-1.505 14.009-5.275 19.074-10.438.121-.132 1.389-1.354 1.336-1.438-2.28-3.555-7.095-5.469-7.095-5.469 2.665-.223 7.782.974 9.865 1.574 5.186 1.494 10.145 3.774 14.605 6.818a46.361 46.361 0 0 1 7.563 6.466c2.166 2.306 3.661 5.163 6.106 7.219 1.125.943 2.499 1.794 4.031 1.703 1.434-.083 3.925-1.122 4.483-2.514 1.344-3.351-1.646-7.71-3.336-10.352z"/><path fill="#F9A533" d="M38.344 23.093c1.049 9.307 12.477 16.666 26.569 16.666 14.092 0 25.52-7.359 26.569-16.666H38.344z"/></svg>